<?xml version="1.0" encoding="UTF-8" standalone="no"?>
<svg
   xmlns:dc="http://purl.org/dc/elements/1.1/"
   xmlns:cc="http://creativecommons.org/ns#"
   xmlns:rdf="http://www.w3.org/1999/02/22-rdf-syntax-ns#"
   xmlns:svg="http://www.w3.org/2000/svg"
   xmlns="http://www.w3.org/2000/svg"
   id="svg5070"
   version="1.1"
   viewBox="0 0 33.866666 33.866668"
   height="128"
   width="128">
  <defs
     id="defs5064">
    <clipPath
       id="clipPath3660"
       clipPathUnits="userSpaceOnUse">
      <path
         id="path3658"
         d="M 0,2400 H 1440 V 0 H 0 Z" />
    </clipPath>
  </defs>
  <metadata
     id="metadata5067">
    <rdf:RDF>
      <cc:Work
         rdf:about="">
        <dc:format>image/svg+xml</dc:format>
        <dc:type
           rdf:resource="http://purl.org/dc/dcmitype/StillImage" />
        <dc:title></dc:title>
      </cc:Work>
    </rdf:RDF>
  </metadata>
  <g
     transform="translate(0,-263.13332)"
     id="layer1">
    <g
       id="g3654"
       transform="matrix(0.67732325,0,0,-0.67733333,-115.14445,1867.2683)">
      <g
         clip-path="url(#clipPath3660)"
         id="g3656">
        <g
           transform="translate(191.875,2340.1846)"
           id="g3662">
          <path
             id="path3664"
             style="fill:#ee6753;fill-opacity:1;fill-rule:nonzero;stroke:none"
             d="M 0,0 H -3.125 C -4.849,0 -6.25,-1.398 -6.25,-3.125 V -18.75 c 0,-1.728 1.401,-3.125 3.125,-3.125 H 0 c 1.728,0 3.125,1.398 3.125,3.125 V -3.125 C 3.125,-1.398 1.728,0 0,0 M 25,12.5 H 21.875 C 20.148,12.5 18.75,11.102 18.75,9.375 V -18.75 c 0,-1.728 1.398,-3.125 3.125,-3.125 H 25 c 1.728,0 3.125,1.398 3.125,3.125 V 9.375 C 28.125,11.102 26.728,12.5 25,12.5 M 12.5,6.25 H 9.375 C 7.648,6.25 6.25,4.852 6.25,3.125 V -18.75 c 0,-1.728 1.398,-3.125 3.125,-3.125 H 12.5 c 1.728,0 3.125,1.398 3.125,3.125 V 3.125 c 0,1.727 -1.397,3.125 -3.125,3.125 m -25,-12.5 h -3.125 c -1.724,0 -3.125,-1.398 -3.125,-3.125 v -9.375 c 0,-1.728 1.401,-3.125 3.125,-3.125 h 3.125 c 1.728,0 3.125,1.398 3.125,3.125 v 9.375 c 0,1.727 -1.397,3.125 -3.125,3.125 m -5.694,9.424 c -0.19,-0.034 -0.375,-0.049 -0.559,-0.049 -1.482,0 -2.798,1.062 -3.073,2.569 -0.305,1.701 0.824,3.327 2.524,3.632 7.651,1.38 15.869,5.28 24.448,11.545 L 1.538,25.247 18.75,28.125 12.638,11.78 9.125,16.04 C -0.427,9.002 -9.387,4.761 -18.194,3.174" />
        </g>
      </g>
    </g>
  </g>
</svg>
